<svg width="198" height="198" viewBox="0 0 198 198" fill="none" xmlns="http://www.w3.org/2000/svg">
<path d="M99.1236 0.0303955H98.6738C44.2572 0.0303955 0.143799 44.1568 0.143799 98.5894V99.0393C0.143799 153.472 44.2572 197.598 98.6738 197.598H99.1236C153.54 197.598 197.654 153.472 197.654 99.0393V98.5894C197.654 44.1568 153.54 0.0303955 99.1236 0.0303955Z" fill="#FF0000"/>
<path fill-rule="evenodd" clip-rule="evenodd" d="M89.8856 125.826C89.768 126.235 89.6573 126.581 89.5673 126.927C84.3429 147.402 83.7617 151.949 78.392 161.46C75.8317 165.98 72.9461 170.264 69.7562 174.362C69.3963 174.826 69.0572 175.421 68.3376 175.276C67.5487 175.109 67.4865 174.396 67.4034 173.767C66.5454 167.544 66.0679 161.307 66.2755 155.022C66.5454 146.841 67.5557 144.031 78.1013 99.6761C78.2536 98.9978 78.0806 98.4371 77.8591 97.8279C75.3334 91.0169 74.8352 84.1021 77.0426 77.0973C81.8172 61.9663 98.9643 60.8104 101.961 73.2903C103.808 81.0081 98.9228 91.1138 95.1723 106.051C92.0653 118.372 106.569 127.135 118.962 118.136C130.394 109.844 134.829 89.9648 133.985 75.8721C132.324 47.7767 101.525 41.7063 81.9902 50.7531C59.5911 61.1149 54.4982 88.8851 64.6148 101.58C65.895 103.192 68.3099 104.182 67.8878 105.816C67.2374 108.356 66.663 110.917 65.9572 113.443C65.4313 115.326 62.4351 116.011 60.5322 115.236C56.8024 113.727 53.6955 111.353 51.1767 108.224C42.5893 97.5857 40.1328 76.5435 51.4881 58.7269C64.0681 38.993 87.4706 31.0053 108.839 33.4279C134.359 36.3281 150.489 53.771 153.506 73.5603C154.883 82.5724 153.893 104.798 141.244 120.511C126.692 138.563 103.102 139.76 92.2175 128.678C91.3803 127.827 90.7091 126.837 89.8856 125.82V125.826Z" fill="white"/>
</svg>
